<svg width="60" height="60" viewBox="0 0 60 60" fill="none" xmlns="http://www.w3.org/2000/svg">
<g clip-path="url(#clip0)">
<path d="M59.9701 30.2834C59.9701 39.8309 59.9403 49.3784 60 58.9259C60 59.821 59.8209 60 58.9259 60C39.7414 59.9702 20.5271 59.9702 1.34259 60C0.447509 60 0.268494 59.821 0.268494 58.9259C0.29833 39.7414 0.29833 20.5271 0.268494 1.34262C0.268494 0.44754 0.447509 0.268524 1.34259 0.268524C20.5271 0.29836 39.7414 0.29836 58.9259 0.268524C59.8209 0.268524 60 0.44754 60 1.34262C59.9403 10.9796 59.9701 20.6464 59.9701 30.2834Z" fill="#FCFBFB"/>
<path d="M52.8095 30.3431C52.8095 37.7424 52.8095 45.1716 52.8095 52.5709C52.8095 55.6738 51.2282 57.2849 48.1551 57.2849C35.9821 57.2849 23.7792 57.2849 11.6062 57.2849C8.41371 57.2849 6.86224 55.7036 6.86224 52.5112C6.86224 37.7424 6.86224 22.9736 6.86224 8.20488C6.86224 4.80358 8.35404 3.28195 11.7553 3.28195C23.7792 3.28195 35.8329 3.28195 47.8568 3.28195C51.3177 3.28195 52.8095 4.77375 52.8095 8.26455C52.8095 15.634 52.8095 23.0035 52.8095 30.3431Z" fill="#EC2029"/>
<path d="M51.9145 30.2834C51.9145 37.4441 51.9145 44.6047 51.9145 51.7653C51.9145 55.0174 50.5718 56.3899 47.2899 56.3899C35.5942 56.3899 23.9284 56.3899 12.2327 56.3899C9.21928 56.3899 7.75732 54.9577 7.75732 51.9145C7.75732 37.5037 7.75732 23.093 7.75732 8.65242C7.75732 5.60916 9.18945 4.17703 12.2327 4.17703C23.9582 4.17703 35.6837 4.17703 47.4391 4.17703C50.5122 4.17703 51.8846 5.57932 51.9145 8.65242C51.9145 15.8727 51.9145 23.0632 51.9145 30.2834Z" fill="#FCFBFB"/>
<path d="M41.7106 31.8946C41.5017 32.1034 41.3227 32.3421 41.1139 32.551C37.4441 36.2506 33.7444 39.9204 30.1044 43.6201C29.5375 44.187 29.1795 44.1273 28.6723 43.5903C27.5087 42.367 26.3153 41.1736 25.1218 40.01C24.3461 39.2641 24.7936 38.7867 25.5395 38.6972C31.3277 37.8319 35.3854 34.371 38.906 30.0448C39.3237 29.5077 39.6519 29.5077 40.0696 29.9851C40.5768 30.5818 41.3227 31.0592 41.7106 31.8946Z" fill="#EC2029"/>
<path d="M33.267 13.456C28.1949 13.4262 23.1526 13.4262 18.1103 14.1721C16.0815 14.4704 14.0228 14.2616 12.173 13.277C11.0392 12.6803 10.7409 11.7255 11.3674 10.9796C11.5464 10.7708 11.7553 10.6514 11.994 10.6813C12.2923 10.7111 12.2327 10.9199 12.2327 11.1288C12.2028 12.3521 13.1576 12.6206 14.0228 12.7698C16.8572 13.2471 19.6618 13.0681 22.4664 12.5012C22.9438 12.4117 23.451 12.3521 22.9438 11.6957C22.5559 11.1586 23.0034 10.8304 23.3615 10.6514C23.8388 10.4127 24.0179 10.9199 24.1969 11.2481C24.7339 12.1432 27.4788 12.7996 28.3441 12.2626C28.6126 12.0835 28.5231 11.994 28.3142 11.8747C27.5087 11.4868 26.9418 10.9796 27.449 10.0249C27.8368 9.30881 28.4932 8.92094 29.269 8.98061C30.164 9.04028 31.0591 9.45799 31.1486 10.4127C31.2978 12.4714 32.5808 12.5012 34.1322 12.3521C35.2063 12.2626 36.3102 12.2924 37.4142 12.2924C38.1601 12.2924 38.5778 12.0537 37.9214 11.3973C37.3843 10.8901 37.7125 10.6514 38.0706 10.3531C38.4584 10.0249 38.8165 10.2337 38.906 10.5619C39.622 12.9488 41.621 12.2924 43.2918 12.4117C43.7991 12.4416 44.3063 12.4714 44.7836 12.3819C45.2909 12.2626 46.9318 12.8593 45.5892 11.3078C45.2909 10.9498 45.7682 10.7111 45.9771 10.4724C46.2456 10.174 46.5141 10.3531 46.7528 10.5918C47.3794 11.2481 47.6777 12.0239 47.4987 12.919C47.3197 13.7842 46.544 13.4262 46.0368 13.5157C45.7384 13.5753 45.2013 13.3068 45.4997 14.1124C45.7384 14.7389 45.1118 14.9776 44.6046 14.8583C44.3063 14.7986 43.5305 14.8284 44.0079 13.9334C44.3361 13.3367 43.62 13.5157 43.3217 13.5157C39.9204 13.456 36.5788 13.456 33.267 13.456Z" fill="#111111"/>
<path d="M26.5241 27.1507C26.5241 26.4048 26.4644 25.6589 26.5241 24.913C26.6136 23.7195 26.1064 23.8687 25.3605 24.2864C24.4654 24.8235 23.5703 25.3307 22.6454 25.8379C22.4962 25.9274 22.2576 26.0766 22.1084 25.8677C22.0487 25.8081 22.1979 25.5395 22.3172 25.4202C24.2864 23.4809 26.2854 21.5415 28.2844 19.6022C28.7319 19.1547 29.09 19.1547 29.5375 19.6022C30.9696 21.0642 32.4018 22.4963 33.8637 23.8986C34.3709 24.3759 34.3411 24.6445 33.7145 24.9727C31.268 26.2854 28.911 27.7772 27.1208 29.9552C27.0015 30.1044 26.8821 30.3431 26.6733 30.1641C26.5539 30.0746 26.5241 29.8359 26.5241 29.6569C26.5539 28.8215 26.5539 27.9861 26.5241 27.1507C26.5539 27.1507 26.5539 27.1507 26.5241 27.1507Z" fill="#EC2029"/>
<path d="M26.5837 34.5201C26.6136 30.9995 28.9408 28.1054 32.0139 27.3297C33.0581 27.0612 33.7145 27.3894 34.0427 28.4635C35.1168 31.8647 32.0437 36.6982 28.5231 37.1457C27.628 37.265 27.091 36.8772 26.8523 36.0716C26.7031 35.4152 26.6434 34.7887 26.5837 34.5201Z" fill="#EC2029"/>
<path d="M21.1835 31.3874C21.1835 32.5808 21.1835 33.7742 21.1835 34.9677C21.1835 35.6241 20.9747 35.8627 20.4376 35.3257C19.3039 34.2218 18.1701 33.088 17.0363 31.9841C16.559 31.5365 16.6485 31.1487 17.0662 30.731C18.1999 29.5972 19.3039 28.4634 20.4376 27.3595C20.5868 27.2103 20.7658 26.912 21.0343 27.1208C21.1537 27.2103 21.1537 27.4789 21.1537 27.6579C21.1835 28.911 21.1835 30.1641 21.1835 31.3874Z" fill="#EC2029"/>
<path d="M14.5897 48.006C14.4704 49.2293 14.5599 50.4525 14.5897 51.6758C14.6196 52.4814 14.2914 53.0184 13.3665 53.0184C12.3521 53.0184 12.5012 52.2725 12.5012 51.646C12.5012 50.0647 12.5012 48.4535 12.5311 46.8722C12.5311 46.3053 12.3819 45.6191 13.3366 45.649C14.1422 45.649 14.5301 46.0368 14.5599 46.8125C14.6196 47.2004 14.5897 47.5883 14.5897 48.006Z" fill="#111111"/>
<path d="M24.4654 49.3486C24.4654 48.4535 24.4952 47.5584 24.4654 46.6634C24.4356 46.007 24.6146 45.6489 25.3605 45.6191C26.0765 45.5893 26.5539 45.828 26.5539 46.5739C26.5837 48.5132 26.5837 50.4525 26.6136 52.3919C26.6136 52.5709 26.6136 52.8394 26.3451 52.7499C26.2555 52.7201 26.166 52.4217 26.166 52.2427C26.1064 50.542 26.1064 48.8712 26.0467 47.1706C26.0467 46.7529 26.1362 46.0965 25.5395 46.0965C24.9726 46.0965 25.0621 46.723 25.0621 47.1706C25.0323 48.7519 25.0323 50.3332 24.9726 51.9443C24.9726 52.2427 25.1815 52.7797 24.6444 52.7499C24.3461 52.7499 24.4356 52.2725 24.4356 52.004C24.4057 51.1089 24.4356 50.2138 24.4356 49.3188C24.4356 49.3486 24.4356 49.3486 24.4654 49.3486Z" fill="#111111"/>
<path d="M19.8707 45.6788C20.0199 45.7384 20.3481 45.5594 20.4077 45.828C20.4674 46.0666 20.1392 46.0368 19.99 46.1263C18.7966 46.6037 19.5127 47.6479 19.3933 48.4237C19.3336 48.9011 19.095 49.7066 20.0497 49.7663C20.2586 49.7663 20.4674 49.7961 20.4972 50.0348C20.4972 50.0647 20.2586 50.184 20.1392 50.184C19.4231 50.0945 19.274 50.542 19.3635 51.0791C19.453 51.646 18.8264 52.6007 20.1094 52.5709C20.1989 52.5709 20.4674 52.541 20.3481 52.7797C20.2884 52.8991 20.1392 53.0482 20.0497 53.0482C19.4231 53.0482 18.7071 53.2273 18.7369 52.183C18.7668 50.3033 18.7668 48.4237 18.7369 46.5739C18.7668 45.7384 19.1845 45.6191 19.8707 45.6788Z" fill="#111111"/>
<path d="M31.8647 45.6489C31.9244 45.6788 32.3421 45.6788 32.3719 45.7683C32.4316 46.0965 32.1034 46.1263 31.8647 46.1263C31.089 46.186 31.2083 46.7827 31.2978 47.2302C31.447 48.0358 30.8503 49.0204 31.805 49.647C31.9841 49.7663 32.4018 49.647 32.4018 49.9453C32.4018 50.2437 32.0437 50.1243 31.8349 50.1542C30.9696 50.3332 31.3873 51.0194 31.3575 51.4669C31.3277 51.8846 31.089 52.541 31.9244 52.541C32.0736 52.541 32.3719 52.4515 32.3719 52.72C32.3719 53.0781 32.0437 53.0184 31.805 53.0184C31.2978 53.0184 30.7309 53.0184 30.7309 52.3023C30.7011 50.2735 30.7011 48.2447 30.7011 46.186C30.7608 45.5296 31.268 45.6489 31.8647 45.6489Z" fill="#111111"/>
<path d="M36.6684 48.2447C36.6684 47.3794 36.6684 46.9319 36.6684 46.4843C36.6385 45.2909 37.5038 45.6788 38.1303 45.6489C38.19 45.6489 38.2795 45.7384 38.3392 45.7683C38.2497 45.8578 38.19 46.007 38.0706 46.0666C36.7579 46.902 36.7579 48.8115 38.0706 49.7663C38.2198 49.8856 38.4585 50.0647 38.1303 50.0945C36.6982 50.1243 37.2352 51.1984 37.1457 51.9145C37.0861 52.2427 37.2651 52.7499 36.8175 52.7499C36.549 52.7499 36.6385 52.2427 36.6087 51.9742C36.5192 50.6017 36.549 49.2293 36.6684 48.2447Z" fill="#111111"/>
<path d="M47.26 48.2148C47.0512 47.5286 47.5584 46.723 46.902 46.0965C46.723 45.9175 46.8125 45.7086 47.0512 45.6788C47.3794 45.6489 47.7374 45.6489 48.0954 45.6788C48.2148 45.6788 48.3938 45.7981 48.2446 45.9771C47.2302 47.2601 48.0059 48.722 47.8269 50.0945C47.7374 50.7807 47.8269 51.4968 47.8269 52.183C47.8269 52.3918 47.9164 52.7499 47.5882 52.7499C47.2302 52.7797 47.3197 52.4217 47.2899 52.183C47.26 50.8702 47.26 49.5276 47.26 48.2148Z" fill="#111111"/>
<path d="M42.367 49.3188C42.367 48.3342 42.367 47.3496 42.367 46.365C42.367 46.2158 42.2775 45.9175 42.5758 45.9175C42.8444 45.9175 42.8444 46.186 42.8444 46.365C42.8742 48.2745 42.8742 50.2138 42.8742 52.1233C42.8742 52.3322 42.9339 52.6902 42.5758 52.6902C42.2476 52.6604 42.367 52.3024 42.367 52.1233C42.3371 51.1984 42.367 50.2735 42.367 49.3188Z" fill="#111111"/>
<path d="M34.9975 15.7533C34.8781 15.8429 34.7588 15.992 34.6096 16.0815C34.3113 16.2307 33.9831 16.3799 33.6549 16.4694C32.9985 16.6484 32.1034 17.5137 31.805 16.7976C31.5664 16.2307 32.8791 16.1412 33.4759 15.813C33.804 15.634 34.2218 15.5445 34.5798 15.455C34.7886 15.3655 34.9975 15.3953 34.9975 15.7533Z" fill="#111111"/>
<path d="M27.5087 15.6937C27.2998 16.2606 26.8224 16.3501 26.4047 16.4396C25.6887 16.6186 24.4356 17.3943 24.3759 16.9468C24.2566 16.0219 25.5693 16.1412 26.2556 15.7832C26.6136 15.6042 27.0611 15.276 27.5087 15.6937Z" fill="#111111"/>
<path d="M46.0069 15.813C45.7682 16.3501 45.1417 16.3799 44.6942 16.5291C44.0676 16.7379 43.0532 17.4838 42.8443 16.8871C42.6056 16.1711 43.8886 16.2009 44.4555 15.8429C44.7837 15.634 45.2014 15.5743 45.5594 15.4252C45.8578 15.3357 45.9771 15.4848 46.0069 15.813Z" fill="#111111"/>
<path d="M36.5192 7.45898C36.9965 7.638 37.6529 7.66784 37.8319 8.23472C37.9513 8.56291 37.4441 8.86127 37.1159 8.8016C36.6087 8.71209 35.8926 8.65242 35.6838 8.17505C35.5346 7.75734 36.1015 7.54849 36.5192 7.45898Z" fill="#111111"/>
<path d="M28.7618 6.86226C29.1795 7.16062 29.8955 7.10095 30.0745 7.75734C30.1342 7.99602 29.7762 8.29438 29.4778 8.26455C28.8811 8.20488 28.2546 8.0557 27.9264 7.57832C27.7772 7.42914 28.2546 6.9816 28.7618 6.86226Z" fill="#111111"/>
<path d="M19.8408 10.0249C19.6618 10.4426 19.4828 10.8006 19.0949 10.6813C18.6175 10.5022 18.1103 10.2636 17.7225 9.93537C17.633 9.87569 18.1103 9.24914 18.5579 9.30881C19.0651 9.33865 19.5126 9.63701 19.8408 10.0249Z" fill="#111111"/>
<path d="M16.2307 10.6813C15.8428 10.3829 15.0969 10.5321 15.0074 9.93536C14.9776 9.66683 15.4848 9.18946 15.8727 9.36847C16.2904 9.54749 17.0363 9.51765 17.0363 10.2039C17.0363 10.5022 16.6484 10.7111 16.2307 10.6813Z" fill="#111111"/>
<path d="M16.5888 50.3928C16.5589 50.6017 16.4098 50.7807 16.2009 50.6912C16.0816 50.6315 15.9622 50.3928 15.9622 50.2138C15.9622 50.1243 16.1711 49.9453 16.2606 49.9453C16.4694 50.005 16.5888 50.1542 16.5888 50.3928Z" fill="#EC2029"/>
<path d="M22.4664 49.9751C22.6753 50.005 22.8543 50.0647 22.8543 50.2735C22.8543 50.4824 22.735 50.6315 22.5261 50.6614C22.3173 50.6912 22.1681 50.5719 22.1382 50.363C22.1382 50.1542 22.2576 50.0348 22.4664 49.9751Z" fill="#EC2029"/>
<path d="M28.7618 50.2735C28.7319 50.4824 28.6424 50.6614 28.4037 50.6614C28.1651 50.6614 28.0457 50.4824 28.0756 50.2735C28.1054 50.1542 28.2247 50.005 28.3441 49.9751C28.5828 49.9155 28.7319 50.0647 28.7618 50.2735Z" fill="#EC2029"/>
<path d="M39.8906 50.2437C39.9502 50.0348 40.0696 49.8856 40.2784 49.9453C40.4873 50.005 40.5768 50.184 40.4873 50.363C40.4276 50.4824 40.3083 50.6017 40.1889 50.6017C39.9801 50.6315 39.8906 50.4525 39.8906 50.2437Z" fill="#EC2029"/>
<path d="M34.3113 49.9453C34.5798 49.9751 34.6096 50.1542 34.6096 50.363C34.6096 50.4823 34.4903 50.6315 34.4008 50.6614C34.1919 50.721 34.0427 50.6017 34.0427 50.363C33.9831 50.1542 34.0726 50.005 34.3113 49.9453Z" fill="#EC2029"/>
<path d="M45.3505 49.9155C45.5892 49.8856 45.7086 50.0348 45.7086 50.2437C45.7086 50.4227 45.6489 50.6315 45.4102 50.6315C45.3207 50.6315 45.1715 50.4824 45.1118 50.363C45.0522 50.1542 45.1417 50.005 45.3505 49.9155Z" fill="#EC2029"/>
<path d="M30.3133 11.3078C30.3729 11.6062 30.1044 11.636 29.9552 11.5465C29.5077 11.278 28.8513 11.278 28.7021 10.6514C28.6424 10.3531 28.911 10.0845 29.269 10.1442C29.8955 10.2636 30.1044 10.7708 30.3133 11.3078Z" fill="#FCFBFB"/>
<path d="M13.1278 47.8568C13.3963 47.4093 12.7101 46.2755 13.5753 46.2755C14.4405 46.2755 13.8737 47.3794 14.0228 48.006C14.0527 48.0955 14.0527 48.2148 14.0228 48.3043C13.9035 48.7519 14.351 49.6171 13.5455 49.5873C12.7996 49.5574 13.3068 48.722 13.1576 48.2745C13.0979 48.185 13.1278 48.0656 13.1278 47.8568Z" fill="#FCFBFB"/>
<path d="M13.1278 51.2581C13.2471 50.8702 12.8592 50.184 13.5156 50.184C14.3212 50.184 13.993 50.9896 14.0825 51.4669C14.1422 51.8846 14.1422 52.5112 13.5455 52.4515C12.7996 52.362 13.3068 51.646 13.1278 51.2581Z" fill="#FCFBFB"/>
</g>
<defs>
<clipPath id="clip0">
<rect width="60" height="60" fill="white"/>
</clipPath>
</defs>
</svg>
