<svg width="18" height="18" viewBox="0 0 18 18" fill="none" xmlns="http://www.w3.org/2000/svg">
<g clip-path="url(#clip0)">
<path d="M11.0769 0C9.5463 0 8.22388 0.635517 7.39906 1.66587C6.57424 2.69621 6.23079 4.03215 6.23079 5.47356V6.23077H8.30772V5.47356C8.30772 4.38101 8.57815 3.52103 9.02166 2.96394C9.46517 2.40685 10.0682 2.07692 11.0769 2.07692C12.0884 2.07692 12.6887 2.38792 13.1322 2.94231C13.5757 3.49669 13.8462 4.36749 13.8462 5.47356V6.23077H15.9231V5.47356C15.9231 4.02404 15.558 2.67458 14.7332 1.64423C13.9084 0.613882 12.6049 0 11.0769 0ZM6.23079 6.92308C5.08416 6.92308 4.15387 7.85337 4.15387 9V15.9231C4.15387 17.0697 5.08416 18 6.23079 18H15.9231C17.0697 18 18 17.0697 18 15.9231V9C18 7.85337 17.0697 6.92308 15.9231 6.92308H6.23079ZM11.0769 10.3846C11.8423 10.3846 12.4616 11.0039 12.4616 11.7692C12.4616 12.2803 12.183 12.7184 11.7693 12.9591V14.5385C11.7693 14.9198 11.4583 15.2308 11.0769 15.2308C10.6956 15.2308 10.3846 14.9198 10.3846 14.5385V12.9591C9.97088 12.7184 9.69233 12.2803 9.69233 11.7692C9.69233 11.0039 10.3116 10.3846 11.0769 10.3846Z" fill="#999999"/>
</g>
<defs>
<clipPath id="clip0">
<rect width="18" height="18" fill="white"/>
</clipPath>
</defs>
</svg>
