<svg width="22" height="23" viewBox="0 0 22 23" fill="none" xmlns="http://www.w3.org/2000/svg">
<circle cx="11" cy="12" r="11" fill="#EEEEEE"/>
<path d="M10.1562 13.2109V12.6328C10.1562 12.1328 10.263 11.6979 10.4766 11.3281C10.6901 10.9583 11.0807 10.5651 11.6484 10.1484C12.1953 9.75781 12.5547 9.4401 12.7266 9.19531C12.9036 8.95052 12.9922 8.67708 12.9922 8.375C12.9922 8.03646 12.8672 7.77865 12.6172 7.60156C12.3672 7.42448 12.0182 7.33594 11.5703 7.33594C10.7891 7.33594 9.89844 7.59115 8.89844 8.10156L8.04688 6.39062C9.20833 5.73958 10.4401 5.41406 11.7422 5.41406C12.8151 5.41406 13.6667 5.67188 14.2969 6.1875C14.9323 6.70312 15.25 7.39062 15.25 8.25C15.25 8.82292 15.1198 9.31771 14.8594 9.73438C14.599 10.151 14.1042 10.6198 13.375 11.1406C12.875 11.5104 12.5573 11.7917 12.4219 11.9844C12.2917 12.1771 12.2266 12.4297 12.2266 12.7422V13.2109H10.1562ZM9.90625 15.8828C9.90625 15.4453 10.0234 15.1146 10.2578 14.8906C10.4922 14.6667 10.8333 14.5547 11.2812 14.5547C11.7135 14.5547 12.0469 14.6693 12.2812 14.8984C12.5208 15.1276 12.6406 15.4557 12.6406 15.8828C12.6406 16.2943 12.5208 16.6198 12.2812 16.8594C12.0417 17.0938 11.7083 17.2109 11.2812 17.2109C10.8438 17.2109 10.5052 17.0964 10.2656 16.8672C10.026 16.6328 9.90625 16.3047 9.90625 15.8828Z" fill="#AAAAAA"/>
</svg>
